<mxfile host="Electron" agent="Mozilla/5.0 (X11; Linux x86_64) AppleWebKit/537.36 (KHTML, like Gecko) draw.io/26.2.2 Chrome/134.0.6998.178 Electron/35.1.2 Safari/537.36" version="26.2.2">
  <diagram name="페이지-1" id="RvoyRt_a5MixvkpAh6uK">
    <mxGraphModel dx="4540" dy="2810" grid="1" gridSize="10" guides="1" tooltips="1" connect="1" arrows="1" fold="1" page="1" pageScale="1" pageWidth="4681" pageHeight="3300" math="0" shadow="0">
      <root>
        <mxCell id="0" />
        <mxCell id="1" parent="0" />
        <mxCell id="yAGsN3SbYWaBe6HwbDUe-1" value="" style="edgeStyle=orthogonalEdgeStyle;rounded=0;orthogonalLoop=1;jettySize=auto;html=1;strokeColor=#457B9D;fontColor=#1D3557;fillColor=#A8DADC;" edge="1" parent="1" source="yAGsN3SbYWaBe6HwbDUe-2" target="yAGsN3SbYWaBe6HwbDUe-5">
          <mxGeometry relative="1" as="geometry" />
        </mxCell>
        <mxCell id="yAGsN3SbYWaBe6HwbDUe-2" value="" style="strokeWidth=2;html=1;shape=mxgraph.flowchart.start_2;whiteSpace=wrap;strokeColor=#457B9D;fontColor=#1D3557;fillColor=#A8DADC;" vertex="1" parent="1">
          <mxGeometry x="570" y="130" width="60" height="60" as="geometry" />
        </mxCell>
        <mxCell id="yAGsN3SbYWaBe6HwbDUe-3" value="to_postfix()" style="text;html=1;align=center;verticalAlign=middle;resizable=0;points=[];autosize=1;strokeColor=none;fillColor=none;fontColor=#1D3557;" vertex="1" parent="1">
          <mxGeometry x="630" y="145" width="80" height="30" as="geometry" />
        </mxCell>
        <mxCell id="yAGsN3SbYWaBe6HwbDUe-4" value="" style="edgeStyle=orthogonalEdgeStyle;rounded=0;orthogonalLoop=1;jettySize=auto;html=1;strokeColor=#457B9D;fontColor=#1D3557;fillColor=#A8DADC;" edge="1" parent="1" source="yAGsN3SbYWaBe6HwbDUe-5" target="yAGsN3SbYWaBe6HwbDUe-7">
          <mxGeometry relative="1" as="geometry" />
        </mxCell>
        <mxCell id="yAGsN3SbYWaBe6HwbDUe-5" value="prec = {&#39;+&#39;: 2, &#39;-&#39;: 2, &#39;*&#39;: 3, &#39;/&#39;: 4}&lt;div&gt;output = []&lt;/div&gt;&lt;div&gt;stack = []&lt;/div&gt;&lt;div&gt;paren_balance = 0&lt;/div&gt;" style="whiteSpace=wrap;html=1;fillColor=#A8DADC;strokeColor=#457B9D;fontColor=#1D3557;strokeWidth=2;" vertex="1" parent="1">
          <mxGeometry x="480" y="240" width="240" height="80" as="geometry" />
        </mxCell>
        <mxCell id="yAGsN3SbYWaBe6HwbDUe-6" value="" style="edgeStyle=orthogonalEdgeStyle;rounded=0;orthogonalLoop=1;jettySize=auto;html=1;strokeColor=#457B9D;fontColor=#1D3557;fillColor=#A8DADC;" edge="1" parent="1" source="yAGsN3SbYWaBe6HwbDUe-7" target="yAGsN3SbYWaBe6HwbDUe-12">
          <mxGeometry relative="1" as="geometry" />
        </mxCell>
        <mxCell id="yAGsN3SbYWaBe6HwbDUe-7" value="index = 0" style="whiteSpace=wrap;html=1;fillColor=#A8DADC;strokeColor=#457B9D;fontColor=#1D3557;strokeWidth=2;" vertex="1" parent="1">
          <mxGeometry x="540" y="360" width="120" height="60" as="geometry" />
        </mxCell>
        <mxCell id="yAGsN3SbYWaBe6HwbDUe-8" value="" style="edgeStyle=orthogonalEdgeStyle;rounded=0;orthogonalLoop=1;jettySize=auto;html=1;strokeColor=#457B9D;fontColor=#1D3557;fillColor=#A8DADC;" edge="1" parent="1" source="yAGsN3SbYWaBe6HwbDUe-12" target="yAGsN3SbYWaBe6HwbDUe-14">
          <mxGeometry relative="1" as="geometry" />
        </mxCell>
        <mxCell id="yAGsN3SbYWaBe6HwbDUe-9" value="True" style="edgeLabel;html=1;align=center;verticalAlign=middle;resizable=0;points=[];strokeColor=#457B9D;fontColor=#1D3557;fillColor=#A8DADC;" vertex="1" connectable="0" parent="yAGsN3SbYWaBe6HwbDUe-8">
          <mxGeometry x="-0.3432" y="2" relative="1" as="geometry">
            <mxPoint x="-22" y="-10" as="offset" />
          </mxGeometry>
        </mxCell>
        <mxCell id="yAGsN3SbYWaBe6HwbDUe-10" style="edgeStyle=orthogonalEdgeStyle;rounded=0;orthogonalLoop=1;jettySize=auto;html=1;entryX=0.5;entryY=0;entryDx=0;entryDy=0;strokeColor=#457B9D;fontColor=#1D3557;fillColor=#A8DADC;" edge="1" parent="1" source="yAGsN3SbYWaBe6HwbDUe-12" target="yAGsN3SbYWaBe6HwbDUe-64">
          <mxGeometry relative="1" as="geometry">
            <Array as="points">
              <mxPoint x="290" y="500" />
              <mxPoint x="290" y="1800" />
              <mxPoint x="580" y="1800" />
            </Array>
          </mxGeometry>
        </mxCell>
        <mxCell id="yAGsN3SbYWaBe6HwbDUe-11" value="False" style="edgeLabel;html=1;align=center;verticalAlign=middle;resizable=0;points=[];strokeColor=#457B9D;fontColor=#1D3557;fillColor=#A8DADC;" vertex="1" connectable="0" parent="yAGsN3SbYWaBe6HwbDUe-10">
          <mxGeometry x="-0.8951" relative="1" as="geometry">
            <mxPoint x="66" y="-10" as="offset" />
          </mxGeometry>
        </mxCell>
        <mxCell id="yAGsN3SbYWaBe6HwbDUe-12" value="index &amp;lt; len(tokens)" style="rhombus;whiteSpace=wrap;html=1;fillColor=#A8DADC;strokeColor=#457B9D;fontColor=#1D3557;strokeWidth=2;" vertex="1" parent="1">
          <mxGeometry x="480" y="460" width="240" height="80" as="geometry" />
        </mxCell>
        <mxCell id="yAGsN3SbYWaBe6HwbDUe-13" value="" style="edgeStyle=orthogonalEdgeStyle;rounded=0;orthogonalLoop=1;jettySize=auto;html=1;strokeColor=#457B9D;fontColor=#1D3557;fillColor=#A8DADC;" edge="1" parent="1" source="yAGsN3SbYWaBe6HwbDUe-14" target="yAGsN3SbYWaBe6HwbDUe-19">
          <mxGeometry relative="1" as="geometry" />
        </mxCell>
        <mxCell id="yAGsN3SbYWaBe6HwbDUe-14" value="token = tokens[index]" style="whiteSpace=wrap;html=1;fillColor=#A8DADC;strokeColor=#457B9D;fontColor=#1D3557;strokeWidth=2;" vertex="1" parent="1">
          <mxGeometry x="480" y="600" width="240" height="60" as="geometry" />
        </mxCell>
        <mxCell id="yAGsN3SbYWaBe6HwbDUe-15" value="" style="edgeStyle=orthogonalEdgeStyle;rounded=0;orthogonalLoop=1;jettySize=auto;html=1;strokeColor=#457B9D;fontColor=#1D3557;fillColor=#A8DADC;" edge="1" parent="1" source="yAGsN3SbYWaBe6HwbDUe-19" target="yAGsN3SbYWaBe6HwbDUe-21">
          <mxGeometry relative="1" as="geometry" />
        </mxCell>
        <mxCell id="yAGsN3SbYWaBe6HwbDUe-16" value="False" style="edgeLabel;html=1;align=center;verticalAlign=middle;resizable=0;points=[];strokeColor=#457B9D;fontColor=#1D3557;fillColor=#A8DADC;" vertex="1" connectable="0" parent="yAGsN3SbYWaBe6HwbDUe-15">
          <mxGeometry x="-0.375" y="-2" relative="1" as="geometry">
            <mxPoint y="-12" as="offset" />
          </mxGeometry>
        </mxCell>
        <mxCell id="yAGsN3SbYWaBe6HwbDUe-17" value="" style="edgeStyle=orthogonalEdgeStyle;rounded=0;orthogonalLoop=1;jettySize=auto;html=1;strokeColor=#457B9D;fontColor=#1D3557;fillColor=#A8DADC;" edge="1" parent="1" source="yAGsN3SbYWaBe6HwbDUe-19" target="yAGsN3SbYWaBe6HwbDUe-26">
          <mxGeometry relative="1" as="geometry" />
        </mxCell>
        <mxCell id="yAGsN3SbYWaBe6HwbDUe-18" value="True" style="edgeLabel;html=1;align=center;verticalAlign=middle;resizable=0;points=[];strokeColor=#457B9D;fontColor=#1D3557;fillColor=#A8DADC;" vertex="1" connectable="0" parent="yAGsN3SbYWaBe6HwbDUe-17">
          <mxGeometry x="-0.5024" y="-1" relative="1" as="geometry">
            <mxPoint x="21" as="offset" />
          </mxGeometry>
        </mxCell>
        <mxCell id="yAGsN3SbYWaBe6HwbDUe-19" value="token in &quot;+-*/()&quot;" style="rhombus;whiteSpace=wrap;html=1;fillColor=#A8DADC;strokeColor=#457B9D;fontColor=#1D3557;strokeWidth=2;" vertex="1" parent="1">
          <mxGeometry x="480" y="720" width="240" height="80" as="geometry" />
        </mxCell>
        <mxCell id="yAGsN3SbYWaBe6HwbDUe-20" style="edgeStyle=orthogonalEdgeStyle;rounded=0;orthogonalLoop=1;jettySize=auto;html=1;entryX=1;entryY=0.5;entryDx=0;entryDy=0;strokeColor=#457B9D;fontColor=#1D3557;fillColor=#A8DADC;" edge="1" parent="1" source="yAGsN3SbYWaBe6HwbDUe-21" target="yAGsN3SbYWaBe6HwbDUe-83">
          <mxGeometry relative="1" as="geometry">
            <Array as="points">
              <mxPoint x="1440" y="760" />
              <mxPoint x="1440" y="440" />
            </Array>
          </mxGeometry>
        </mxCell>
        <mxCell id="yAGsN3SbYWaBe6HwbDUe-21" value="output.append(token)" style="whiteSpace=wrap;html=1;fillColor=#A8DADC;strokeColor=#457B9D;fontColor=#1D3557;strokeWidth=2;" vertex="1" parent="1">
          <mxGeometry x="800" y="720" width="240" height="80" as="geometry" />
        </mxCell>
        <mxCell id="yAGsN3SbYWaBe6HwbDUe-22" value="" style="edgeStyle=orthogonalEdgeStyle;rounded=0;orthogonalLoop=1;jettySize=auto;html=1;strokeColor=#457B9D;fontColor=#1D3557;fillColor=#A8DADC;" edge="1" parent="1" source="yAGsN3SbYWaBe6HwbDUe-26" target="yAGsN3SbYWaBe6HwbDUe-28">
          <mxGeometry relative="1" as="geometry" />
        </mxCell>
        <mxCell id="yAGsN3SbYWaBe6HwbDUe-23" value="True" style="edgeLabel;html=1;align=center;verticalAlign=middle;resizable=0;points=[];strokeColor=#457B9D;fontColor=#1D3557;fillColor=#A8DADC;" vertex="1" connectable="0" parent="yAGsN3SbYWaBe6HwbDUe-22">
          <mxGeometry x="-0.2012" y="1" relative="1" as="geometry">
            <mxPoint x="-12" y="-9" as="offset" />
          </mxGeometry>
        </mxCell>
        <mxCell id="yAGsN3SbYWaBe6HwbDUe-24" value="" style="edgeStyle=orthogonalEdgeStyle;rounded=0;orthogonalLoop=1;jettySize=auto;html=1;strokeColor=#457B9D;fontColor=#1D3557;fillColor=#A8DADC;" edge="1" parent="1" source="yAGsN3SbYWaBe6HwbDUe-26" target="yAGsN3SbYWaBe6HwbDUe-32">
          <mxGeometry relative="1" as="geometry" />
        </mxCell>
        <mxCell id="yAGsN3SbYWaBe6HwbDUe-25" value="False" style="edgeLabel;html=1;align=center;verticalAlign=middle;resizable=0;points=[];strokeColor=#457B9D;fontColor=#1D3557;fillColor=#A8DADC;" vertex="1" connectable="0" parent="yAGsN3SbYWaBe6HwbDUe-24">
          <mxGeometry x="-0.2569" y="2" relative="1" as="geometry">
            <mxPoint x="18" as="offset" />
          </mxGeometry>
        </mxCell>
        <mxCell id="yAGsN3SbYWaBe6HwbDUe-26" value="token == &quot;(&quot;" style="rhombus;whiteSpace=wrap;html=1;fillColor=#A8DADC;strokeColor=#457B9D;fontColor=#1D3557;strokeWidth=2;" vertex="1" parent="1">
          <mxGeometry x="480" y="840" width="240" height="80" as="geometry" />
        </mxCell>
        <mxCell id="yAGsN3SbYWaBe6HwbDUe-27" style="edgeStyle=orthogonalEdgeStyle;rounded=0;orthogonalLoop=1;jettySize=auto;html=1;entryX=1;entryY=0.5;entryDx=0;entryDy=0;strokeColor=#457B9D;fontColor=#1D3557;fillColor=#A8DADC;" edge="1" parent="1" source="yAGsN3SbYWaBe6HwbDUe-28" target="yAGsN3SbYWaBe6HwbDUe-83">
          <mxGeometry relative="1" as="geometry">
            <Array as="points">
              <mxPoint x="1440" y="880" />
              <mxPoint x="1440" y="440" />
            </Array>
          </mxGeometry>
        </mxCell>
        <mxCell id="yAGsN3SbYWaBe6HwbDUe-28" value="stack.append(token)&lt;div&gt;paren_balance += 1&lt;/div&gt;" style="whiteSpace=wrap;html=1;fillColor=#A8DADC;strokeColor=#457B9D;fontColor=#1D3557;strokeWidth=2;" vertex="1" parent="1">
          <mxGeometry x="800" y="840" width="240" height="80" as="geometry" />
        </mxCell>
        <mxCell id="yAGsN3SbYWaBe6HwbDUe-29" value="" style="edgeStyle=orthogonalEdgeStyle;rounded=0;orthogonalLoop=1;jettySize=auto;html=1;strokeColor=#457B9D;fontColor=#1D3557;fillColor=#A8DADC;" edge="1" parent="1" source="yAGsN3SbYWaBe6HwbDUe-32" target="yAGsN3SbYWaBe6HwbDUe-35">
          <mxGeometry relative="1" as="geometry" />
        </mxCell>
        <mxCell id="yAGsN3SbYWaBe6HwbDUe-30" value="True" style="edgeLabel;html=1;align=center;verticalAlign=middle;resizable=0;points=[];strokeColor=#457B9D;fontColor=#1D3557;fillColor=#A8DADC;" vertex="1" connectable="0" parent="yAGsN3SbYWaBe6HwbDUe-29">
          <mxGeometry x="-0.7336" y="2" relative="1" as="geometry">
            <mxPoint x="10" y="-8" as="offset" />
          </mxGeometry>
        </mxCell>
        <mxCell id="yAGsN3SbYWaBe6HwbDUe-31" value="" style="edgeStyle=orthogonalEdgeStyle;rounded=0;orthogonalLoop=1;jettySize=auto;html=1;strokeColor=#457B9D;fontColor=#1D3557;fillColor=#A8DADC;" edge="1" parent="1" source="yAGsN3SbYWaBe6HwbDUe-32" target="yAGsN3SbYWaBe6HwbDUe-56">
          <mxGeometry relative="1" as="geometry" />
        </mxCell>
        <mxCell id="yAGsN3SbYWaBe6HwbDUe-32" value="token == &quot;)&quot;" style="rhombus;whiteSpace=wrap;html=1;fillColor=#A8DADC;strokeColor=#457B9D;fontColor=#1D3557;strokeWidth=2;" vertex="1" parent="1">
          <mxGeometry x="480" y="960" width="240" height="80" as="geometry" />
        </mxCell>
        <mxCell id="yAGsN3SbYWaBe6HwbDUe-33" value="" style="edgeStyle=orthogonalEdgeStyle;rounded=0;orthogonalLoop=1;jettySize=auto;html=1;strokeColor=#457B9D;fontColor=#1D3557;fillColor=#A8DADC;" edge="1" parent="1" source="yAGsN3SbYWaBe6HwbDUe-35" target="yAGsN3SbYWaBe6HwbDUe-40">
          <mxGeometry relative="1" as="geometry" />
        </mxCell>
        <mxCell id="yAGsN3SbYWaBe6HwbDUe-34" style="edgeStyle=orthogonalEdgeStyle;rounded=0;orthogonalLoop=1;jettySize=auto;html=1;entryX=1;entryY=0.5;entryDx=0;entryDy=0;strokeColor=#457B9D;fontColor=#1D3557;fillColor=#A8DADC;" edge="1" parent="1" source="yAGsN3SbYWaBe6HwbDUe-35" target="yAGsN3SbYWaBe6HwbDUe-83">
          <mxGeometry relative="1" as="geometry">
            <Array as="points">
              <mxPoint x="1440" y="1000" />
              <mxPoint x="1440" y="440" />
            </Array>
          </mxGeometry>
        </mxCell>
        <mxCell id="yAGsN3SbYWaBe6HwbDUe-35" value="paren_balance -= 1" style="whiteSpace=wrap;html=1;fillColor=#A8DADC;strokeColor=#457B9D;fontColor=#1D3557;strokeWidth=2;" vertex="1" parent="1">
          <mxGeometry x="800" y="960" width="240" height="80" as="geometry" />
        </mxCell>
        <mxCell id="yAGsN3SbYWaBe6HwbDUe-36" value="" style="edgeStyle=orthogonalEdgeStyle;rounded=0;orthogonalLoop=1;jettySize=auto;html=1;strokeColor=#457B9D;fontColor=#1D3557;fillColor=#A8DADC;" edge="1" parent="1" source="yAGsN3SbYWaBe6HwbDUe-40" target="yAGsN3SbYWaBe6HwbDUe-42">
          <mxGeometry relative="1" as="geometry" />
        </mxCell>
        <mxCell id="yAGsN3SbYWaBe6HwbDUe-37" value="True" style="edgeLabel;html=1;align=center;verticalAlign=middle;resizable=0;points=[];strokeColor=#457B9D;fontColor=#1D3557;fillColor=#A8DADC;" vertex="1" connectable="0" parent="yAGsN3SbYWaBe6HwbDUe-36">
          <mxGeometry x="-0.0095" relative="1" as="geometry">
            <mxPoint x="-360" y="-487" as="offset" />
          </mxGeometry>
        </mxCell>
        <mxCell id="yAGsN3SbYWaBe6HwbDUe-38" value="" style="edgeStyle=orthogonalEdgeStyle;rounded=0;orthogonalLoop=1;jettySize=auto;html=1;strokeColor=#457B9D;fontColor=#1D3557;fillColor=#A8DADC;" edge="1" parent="1" source="yAGsN3SbYWaBe6HwbDUe-40" target="yAGsN3SbYWaBe6HwbDUe-47">
          <mxGeometry relative="1" as="geometry" />
        </mxCell>
        <mxCell id="yAGsN3SbYWaBe6HwbDUe-39" value="False" style="edgeLabel;html=1;align=center;verticalAlign=middle;resizable=0;points=[];strokeColor=#457B9D;fontColor=#1D3557;fillColor=#A8DADC;" vertex="1" connectable="0" parent="yAGsN3SbYWaBe6HwbDUe-38">
          <mxGeometry x="-0.2664" relative="1" as="geometry">
            <mxPoint x="-20" y="-20" as="offset" />
          </mxGeometry>
        </mxCell>
        <mxCell id="yAGsN3SbYWaBe6HwbDUe-40" value="paren_balance &amp;lt; 0" style="rhombus;whiteSpace=wrap;html=1;fillColor=#A8DADC;strokeColor=#457B9D;fontColor=#1D3557;strokeWidth=2;" vertex="1" parent="1">
          <mxGeometry x="800" y="1080" width="240" height="80" as="geometry" />
        </mxCell>
        <mxCell id="yAGsN3SbYWaBe6HwbDUe-41" style="edgeStyle=orthogonalEdgeStyle;rounded=0;orthogonalLoop=1;jettySize=auto;html=1;strokeColor=#457B9D;fontColor=#1D3557;fillColor=#A8DADC;" edge="1" parent="1" source="yAGsN3SbYWaBe6HwbDUe-42">
          <mxGeometry relative="1" as="geometry">
            <mxPoint x="1010" y="2710" as="targetPoint" />
            <Array as="points">
              <mxPoint x="1560" y="2630" />
              <mxPoint x="1011" y="2630" />
              <mxPoint x="1011" y="2710" />
            </Array>
          </mxGeometry>
        </mxCell>
        <mxCell id="yAGsN3SbYWaBe6HwbDUe-42" value="self.just_errored = True&lt;div&gt;return &quot;Error&quot;&lt;/div&gt;" style="whiteSpace=wrap;html=1;fillColor=#A8DADC;strokeColor=#457B9D;fontColor=#1D3557;strokeWidth=2;" vertex="1" parent="1">
          <mxGeometry x="1440" y="2470" width="240" height="80" as="geometry" />
        </mxCell>
        <mxCell id="yAGsN3SbYWaBe6HwbDUe-43" value="" style="edgeStyle=orthogonalEdgeStyle;rounded=0;orthogonalLoop=1;jettySize=auto;html=1;strokeColor=#457B9D;fontColor=#1D3557;fillColor=#A8DADC;" edge="1" parent="1" source="yAGsN3SbYWaBe6HwbDUe-47" target="yAGsN3SbYWaBe6HwbDUe-49">
          <mxGeometry relative="1" as="geometry" />
        </mxCell>
        <mxCell id="yAGsN3SbYWaBe6HwbDUe-44" value="" style="edgeStyle=orthogonalEdgeStyle;rounded=0;orthogonalLoop=1;jettySize=auto;html=1;strokeColor=#457B9D;fontColor=#1D3557;fillColor=#A8DADC;" edge="1" parent="1" source="yAGsN3SbYWaBe6HwbDUe-47" target="yAGsN3SbYWaBe6HwbDUe-49">
          <mxGeometry relative="1" as="geometry" />
        </mxCell>
        <mxCell id="yAGsN3SbYWaBe6HwbDUe-45" value="True" style="edgeLabel;html=1;align=center;verticalAlign=middle;resizable=0;points=[];strokeColor=#457B9D;fontColor=#1D3557;fillColor=#A8DADC;" vertex="1" connectable="0" parent="yAGsN3SbYWaBe6HwbDUe-44">
          <mxGeometry x="-0.2224" relative="1" as="geometry">
            <mxPoint x="20" as="offset" />
          </mxGeometry>
        </mxCell>
        <mxCell id="yAGsN3SbYWaBe6HwbDUe-46" value="" style="edgeStyle=orthogonalEdgeStyle;rounded=0;orthogonalLoop=1;jettySize=auto;html=1;strokeColor=#457B9D;fontColor=#1D3557;fillColor=#A8DADC;" edge="1" parent="1" source="yAGsN3SbYWaBe6HwbDUe-47" target="yAGsN3SbYWaBe6HwbDUe-51">
          <mxGeometry relative="1" as="geometry" />
        </mxCell>
        <mxCell id="yAGsN3SbYWaBe6HwbDUe-47" value="stack and stack[-1] != &quot;(&quot;" style="rhombus;whiteSpace=wrap;html=1;fillColor=#A8DADC;strokeColor=#457B9D;fontColor=#1D3557;strokeWidth=2;" vertex="1" parent="1">
          <mxGeometry x="800" y="1260" width="240" height="80" as="geometry" />
        </mxCell>
        <mxCell id="yAGsN3SbYWaBe6HwbDUe-48" style="edgeStyle=orthogonalEdgeStyle;rounded=0;orthogonalLoop=1;jettySize=auto;html=1;entryX=0.5;entryY=0;entryDx=0;entryDy=0;strokeColor=#457B9D;fontColor=#1D3557;fillColor=#A8DADC;" edge="1" parent="1" source="yAGsN3SbYWaBe6HwbDUe-49" target="yAGsN3SbYWaBe6HwbDUe-47">
          <mxGeometry relative="1" as="geometry">
            <Array as="points">
              <mxPoint x="920" y="1470" />
              <mxPoint x="750" y="1470" />
              <mxPoint x="750" y="1220" />
              <mxPoint x="920" y="1220" />
            </Array>
          </mxGeometry>
        </mxCell>
        <mxCell id="yAGsN3SbYWaBe6HwbDUe-49" value="output.append(stack.pop())" style="whiteSpace=wrap;html=1;fillColor=#A8DADC;strokeColor=#457B9D;fontColor=#1D3557;strokeWidth=2;" vertex="1" parent="1">
          <mxGeometry x="800" y="1380" width="240" height="60" as="geometry" />
        </mxCell>
        <mxCell id="yAGsN3SbYWaBe6HwbDUe-50" style="edgeStyle=orthogonalEdgeStyle;rounded=0;orthogonalLoop=1;jettySize=auto;html=1;entryX=1;entryY=0.5;entryDx=0;entryDy=0;strokeColor=#457B9D;fontColor=#1D3557;fillColor=#A8DADC;" edge="1" parent="1" source="yAGsN3SbYWaBe6HwbDUe-51" target="yAGsN3SbYWaBe6HwbDUe-83">
          <mxGeometry relative="1" as="geometry">
            <Array as="points">
              <mxPoint x="1440" y="1300" />
              <mxPoint x="1440" y="440" />
            </Array>
          </mxGeometry>
        </mxCell>
        <mxCell id="yAGsN3SbYWaBe6HwbDUe-51" value="stack.pop()" style="whiteSpace=wrap;html=1;fillColor=#A8DADC;strokeColor=#457B9D;fontColor=#1D3557;strokeWidth=2;" vertex="1" parent="1">
          <mxGeometry x="1120" y="1260" width="240" height="80" as="geometry" />
        </mxCell>
        <mxCell id="yAGsN3SbYWaBe6HwbDUe-52" value="" style="edgeStyle=orthogonalEdgeStyle;rounded=0;orthogonalLoop=1;jettySize=auto;html=1;strokeColor=#457B9D;fontColor=#1D3557;fillColor=#A8DADC;" edge="1" parent="1" source="yAGsN3SbYWaBe6HwbDUe-56" target="yAGsN3SbYWaBe6HwbDUe-57">
          <mxGeometry relative="1" as="geometry" />
        </mxCell>
        <mxCell id="yAGsN3SbYWaBe6HwbDUe-53" value="True" style="edgeLabel;html=1;align=center;verticalAlign=middle;resizable=0;points=[];strokeColor=#457B9D;fontColor=#1D3557;fillColor=#A8DADC;" vertex="1" connectable="0" parent="yAGsN3SbYWaBe6HwbDUe-52">
          <mxGeometry x="-0.4288" y="-1" relative="1" as="geometry">
            <mxPoint x="21" as="offset" />
          </mxGeometry>
        </mxCell>
        <mxCell id="yAGsN3SbYWaBe6HwbDUe-54" value="" style="edgeStyle=orthogonalEdgeStyle;rounded=0;orthogonalLoop=1;jettySize=auto;html=1;strokeColor=#457B9D;fontColor=#1D3557;fillColor=#A8DADC;" edge="1" parent="1" source="yAGsN3SbYWaBe6HwbDUe-56" target="yAGsN3SbYWaBe6HwbDUe-59">
          <mxGeometry relative="1" as="geometry" />
        </mxCell>
        <mxCell id="yAGsN3SbYWaBe6HwbDUe-55" value="False" style="edgeLabel;html=1;align=center;verticalAlign=middle;resizable=0;points=[];strokeColor=#457B9D;fontColor=#1D3557;fillColor=#A8DADC;" vertex="1" connectable="0" parent="yAGsN3SbYWaBe6HwbDUe-54">
          <mxGeometry x="-0.4583" relative="1" as="geometry">
            <mxPoint y="-10" as="offset" />
          </mxGeometry>
        </mxCell>
        <mxCell id="yAGsN3SbYWaBe6HwbDUe-56" value="stack &amp;amp;&amp;amp;&amp;nbsp;&lt;span style=&quot;background-color: transparent; color: light-dark(rgb(29, 53, 87), rgb(176, 196, 226));&quot;&gt;stack[-1] != &quot;(&quot; &amp;amp;&amp;amp;&lt;/span&gt;&lt;div&gt;prec.get(stack[-1],0) &amp;gt;= prec[token]&lt;/div&gt;" style="rhombus;whiteSpace=wrap;html=1;fillColor=#A8DADC;strokeColor=#457B9D;fontColor=#1D3557;strokeWidth=2;" vertex="1" parent="1">
          <mxGeometry x="480" y="1520" width="240" height="80" as="geometry" />
        </mxCell>
        <mxCell id="yAGsN3SbYWaBe6HwbDUe-57" value="output.append(stack.pop())" style="whiteSpace=wrap;html=1;fillColor=#A8DADC;strokeColor=#457B9D;fontColor=#1D3557;strokeWidth=2;" vertex="1" parent="1">
          <mxGeometry x="480" y="1640" width="240" height="60" as="geometry" />
        </mxCell>
        <mxCell id="yAGsN3SbYWaBe6HwbDUe-58" style="edgeStyle=orthogonalEdgeStyle;rounded=0;orthogonalLoop=1;jettySize=auto;html=1;entryX=0.5;entryY=0;entryDx=0;entryDy=0;strokeColor=#457B9D;fontColor=#1D3557;fillColor=#A8DADC;" edge="1" parent="1" source="yAGsN3SbYWaBe6HwbDUe-57" target="yAGsN3SbYWaBe6HwbDUe-56">
          <mxGeometry relative="1" as="geometry">
            <Array as="points">
              <mxPoint x="600" y="1720" />
              <mxPoint x="400" y="1720" />
              <mxPoint x="400" y="1480" />
              <mxPoint x="600" y="1480" />
            </Array>
          </mxGeometry>
        </mxCell>
        <mxCell id="yAGsN3SbYWaBe6HwbDUe-59" value="stack.append(token)" style="whiteSpace=wrap;html=1;fillColor=#A8DADC;strokeColor=#457B9D;fontColor=#1D3557;strokeWidth=2;" vertex="1" parent="1">
          <mxGeometry x="800" y="1530" width="240" height="60" as="geometry" />
        </mxCell>
        <mxCell id="yAGsN3SbYWaBe6HwbDUe-60" value="" style="edgeStyle=orthogonalEdgeStyle;rounded=0;orthogonalLoop=1;jettySize=auto;html=1;strokeColor=#457B9D;fontColor=#1D3557;fillColor=#A8DADC;" edge="1" parent="1" source="yAGsN3SbYWaBe6HwbDUe-64" target="yAGsN3SbYWaBe6HwbDUe-69">
          <mxGeometry relative="1" as="geometry" />
        </mxCell>
        <mxCell id="yAGsN3SbYWaBe6HwbDUe-61" value="True" style="edgeLabel;html=1;align=center;verticalAlign=middle;resizable=0;points=[];strokeColor=#457B9D;fontColor=#1D3557;fillColor=#A8DADC;" vertex="1" connectable="0" parent="yAGsN3SbYWaBe6HwbDUe-60">
          <mxGeometry x="-0.5371" y="3" relative="1" as="geometry">
            <mxPoint x="17" as="offset" />
          </mxGeometry>
        </mxCell>
        <mxCell id="yAGsN3SbYWaBe6HwbDUe-62" value="" style="edgeStyle=orthogonalEdgeStyle;rounded=0;orthogonalLoop=1;jettySize=auto;html=1;strokeColor=#457B9D;fontColor=#1D3557;fillColor=#A8DADC;" edge="1" parent="1" source="yAGsN3SbYWaBe6HwbDUe-64" target="yAGsN3SbYWaBe6HwbDUe-77">
          <mxGeometry relative="1" as="geometry">
            <Array as="points">
              <mxPoint x="340" y="1880" />
              <mxPoint x="340" y="2280" />
              <mxPoint x="580" y="2280" />
            </Array>
          </mxGeometry>
        </mxCell>
        <mxCell id="yAGsN3SbYWaBe6HwbDUe-63" value="False" style="edgeLabel;html=1;align=center;verticalAlign=middle;resizable=0;points=[];strokeColor=#457B9D;fontColor=#1D3557;fillColor=#A8DADC;" vertex="1" connectable="0" parent="yAGsN3SbYWaBe6HwbDUe-62">
          <mxGeometry x="-0.9103" y="-3" relative="1" as="geometry">
            <mxPoint x="15" y="-7" as="offset" />
          </mxGeometry>
        </mxCell>
        <mxCell id="yAGsN3SbYWaBe6HwbDUe-64" value="stack" style="rhombus;whiteSpace=wrap;html=1;strokeColor=#457B9D;fontColor=#1D3557;fillColor=#A8DADC;" vertex="1" parent="1">
          <mxGeometry x="440" y="1840" width="280" height="80" as="geometry" />
        </mxCell>
        <mxCell id="yAGsN3SbYWaBe6HwbDUe-65" value="" style="edgeStyle=orthogonalEdgeStyle;rounded=0;orthogonalLoop=1;jettySize=auto;html=1;strokeColor=#457B9D;fontColor=#1D3557;fillColor=#A8DADC;" edge="1" parent="1" source="yAGsN3SbYWaBe6HwbDUe-69" target="yAGsN3SbYWaBe6HwbDUe-71">
          <mxGeometry relative="1" as="geometry" />
        </mxCell>
        <mxCell id="yAGsN3SbYWaBe6HwbDUe-66" value="True" style="edgeLabel;html=1;align=center;verticalAlign=middle;resizable=0;points=[];strokeColor=#457B9D;fontColor=#1D3557;fillColor=#A8DADC;" vertex="1" connectable="0" parent="yAGsN3SbYWaBe6HwbDUe-65">
          <mxGeometry x="-0.45" y="-3" relative="1" as="geometry">
            <mxPoint x="-227" y="-13" as="offset" />
          </mxGeometry>
        </mxCell>
        <mxCell id="yAGsN3SbYWaBe6HwbDUe-67" value="" style="edgeStyle=orthogonalEdgeStyle;rounded=0;orthogonalLoop=1;jettySize=auto;html=1;strokeColor=#457B9D;fontColor=#1D3557;fillColor=#A8DADC;" edge="1" parent="1" source="yAGsN3SbYWaBe6HwbDUe-69" target="yAGsN3SbYWaBe6HwbDUe-73">
          <mxGeometry relative="1" as="geometry" />
        </mxCell>
        <mxCell id="yAGsN3SbYWaBe6HwbDUe-68" value="False" style="edgeLabel;html=1;align=center;verticalAlign=middle;resizable=0;points=[];strokeColor=#457B9D;fontColor=#1D3557;fillColor=#A8DADC;" vertex="1" connectable="0" parent="yAGsN3SbYWaBe6HwbDUe-67">
          <mxGeometry x="-0.36" relative="1" as="geometry">
            <mxPoint x="20" y="-12" as="offset" />
          </mxGeometry>
        </mxCell>
        <mxCell id="yAGsN3SbYWaBe6HwbDUe-69" value="stack[-1] in &quot;()&quot;" style="rhombus;whiteSpace=wrap;html=1;fillColor=#A8DADC;strokeColor=#457B9D;fontColor=#1D3557;" vertex="1" parent="1">
          <mxGeometry x="440" y="1970" width="280" height="80" as="geometry" />
        </mxCell>
        <mxCell id="yAGsN3SbYWaBe6HwbDUe-70" style="edgeStyle=orthogonalEdgeStyle;rounded=0;orthogonalLoop=1;jettySize=auto;html=1;entryX=0.5;entryY=0;entryDx=0;entryDy=0;strokeColor=#457B9D;fontColor=#1D3557;fillColor=#A8DADC;" edge="1" parent="1" source="yAGsN3SbYWaBe6HwbDUe-71" target="yAGsN3SbYWaBe6HwbDUe-84">
          <mxGeometry relative="1" as="geometry" />
        </mxCell>
        <mxCell id="yAGsN3SbYWaBe6HwbDUe-71" value="self.just_errored = True&lt;div&gt;return &quot;Error&quot;&lt;/div&gt;" style="whiteSpace=wrap;html=1;fillColor=#A8DADC;strokeColor=#457B9D;fontColor=#1D3557;" vertex="1" parent="1">
          <mxGeometry x="1030" y="2470" width="200" height="80" as="geometry" />
        </mxCell>
        <mxCell id="yAGsN3SbYWaBe6HwbDUe-72" style="edgeStyle=orthogonalEdgeStyle;rounded=0;orthogonalLoop=1;jettySize=auto;html=1;entryX=0.5;entryY=0;entryDx=0;entryDy=0;strokeColor=#457B9D;fontColor=#1D3557;fillColor=#A8DADC;" edge="1" parent="1" source="yAGsN3SbYWaBe6HwbDUe-73" target="yAGsN3SbYWaBe6HwbDUe-64">
          <mxGeometry relative="1" as="geometry">
            <Array as="points">
              <mxPoint x="580" y="2220" />
              <mxPoint x="1040" y="2220" />
              <mxPoint x="1040" y="1800" />
              <mxPoint x="580" y="1800" />
            </Array>
          </mxGeometry>
        </mxCell>
        <mxCell id="yAGsN3SbYWaBe6HwbDUe-73" value="output.append(token)" style="whiteSpace=wrap;html=1;fillColor=#A8DADC;strokeColor=#457B9D;fontColor=#1D3557;" vertex="1" parent="1">
          <mxGeometry x="440" y="2120" width="280" height="60" as="geometry" />
        </mxCell>
        <mxCell id="yAGsN3SbYWaBe6HwbDUe-74" value="" style="edgeStyle=orthogonalEdgeStyle;rounded=0;orthogonalLoop=1;jettySize=auto;html=1;strokeColor=#457B9D;fontColor=#1D3557;fillColor=#A8DADC;" edge="1" parent="1" source="yAGsN3SbYWaBe6HwbDUe-77" target="yAGsN3SbYWaBe6HwbDUe-79">
          <mxGeometry relative="1" as="geometry" />
        </mxCell>
        <mxCell id="yAGsN3SbYWaBe6HwbDUe-75" value="False" style="edgeLabel;html=1;align=center;verticalAlign=middle;resizable=0;points=[];strokeColor=#457B9D;fontColor=#1D3557;fillColor=#A8DADC;" vertex="1" connectable="0" parent="yAGsN3SbYWaBe6HwbDUe-74">
          <mxGeometry x="-0.325" y="2" relative="1" as="geometry">
            <mxPoint y="-8" as="offset" />
          </mxGeometry>
        </mxCell>
        <mxCell id="yAGsN3SbYWaBe6HwbDUe-76" value="" style="edgeStyle=orthogonalEdgeStyle;rounded=0;orthogonalLoop=1;jettySize=auto;html=1;strokeColor=#457B9D;fontColor=#1D3557;fillColor=#A8DADC;" edge="1" parent="1" source="yAGsN3SbYWaBe6HwbDUe-77" target="yAGsN3SbYWaBe6HwbDUe-81">
          <mxGeometry relative="1" as="geometry" />
        </mxCell>
        <mxCell id="yAGsN3SbYWaBe6HwbDUe-77" value="paren_balance == 0" style="rhombus;whiteSpace=wrap;html=1;fillColor=#A8DADC;strokeColor=#457B9D;fontColor=#1D3557;" vertex="1" parent="1">
          <mxGeometry x="440" y="2320" width="280" height="80" as="geometry" />
        </mxCell>
        <mxCell id="yAGsN3SbYWaBe6HwbDUe-78" style="edgeStyle=orthogonalEdgeStyle;rounded=0;orthogonalLoop=1;jettySize=auto;html=1;entryX=0.5;entryY=0;entryDx=0;entryDy=0;strokeColor=#457B9D;fontColor=#1D3557;fillColor=#A8DADC;" edge="1" parent="1" source="yAGsN3SbYWaBe6HwbDUe-79" target="yAGsN3SbYWaBe6HwbDUe-84">
          <mxGeometry relative="1" as="geometry" />
        </mxCell>
        <mxCell id="yAGsN3SbYWaBe6HwbDUe-79" value="self.just_errored = True&lt;div&gt;return &quot;Error&quot;&lt;/div&gt;" style="whiteSpace=wrap;html=1;fillColor=#A8DADC;strokeColor=#457B9D;fontColor=#1D3557;" vertex="1" parent="1">
          <mxGeometry x="765" y="2470" width="200" height="80" as="geometry" />
        </mxCell>
        <mxCell id="yAGsN3SbYWaBe6HwbDUe-80" style="edgeStyle=orthogonalEdgeStyle;rounded=0;orthogonalLoop=1;jettySize=auto;html=1;entryX=0.5;entryY=0;entryDx=0;entryDy=0;strokeColor=#457B9D;fontColor=#1D3557;fillColor=#A8DADC;" edge="1" parent="1" source="yAGsN3SbYWaBe6HwbDUe-81" target="yAGsN3SbYWaBe6HwbDUe-84">
          <mxGeometry relative="1" as="geometry">
            <Array as="points">
              <mxPoint x="580" y="2630" />
              <mxPoint x="1010" y="2630" />
            </Array>
          </mxGeometry>
        </mxCell>
        <mxCell id="yAGsN3SbYWaBe6HwbDUe-81" value="return output" style="whiteSpace=wrap;html=1;fillColor=#A8DADC;strokeColor=#457B9D;fontColor=#1D3557;" vertex="1" parent="1">
          <mxGeometry x="490" y="2470" width="180" height="80" as="geometry" />
        </mxCell>
        <mxCell id="yAGsN3SbYWaBe6HwbDUe-82" style="edgeStyle=orthogonalEdgeStyle;rounded=0;orthogonalLoop=1;jettySize=auto;html=1;entryX=0.5;entryY=0;entryDx=0;entryDy=0;strokeColor=#457B9D;fontColor=#1D3557;fillColor=#A8DADC;" edge="1" parent="1" source="yAGsN3SbYWaBe6HwbDUe-83" target="yAGsN3SbYWaBe6HwbDUe-12">
          <mxGeometry relative="1" as="geometry">
            <Array as="points">
              <mxPoint x="600" y="440" />
            </Array>
          </mxGeometry>
        </mxCell>
        <mxCell id="yAGsN3SbYWaBe6HwbDUe-83" value="index +=1" style="whiteSpace=wrap;html=1;strokeColor=#457B9D;fontColor=#1D3557;fillColor=#A8DADC;" vertex="1" parent="1">
          <mxGeometry x="810" y="410" width="110" height="60" as="geometry" />
        </mxCell>
        <mxCell id="yAGsN3SbYWaBe6HwbDUe-84" value="" style="rounded=1;whiteSpace=wrap;html=1;strokeColor=#457B9D;fontColor=#1D3557;fillColor=#A8DADC;" vertex="1" parent="1">
          <mxGeometry x="950" y="2710" width="120" height="60" as="geometry" />
        </mxCell>
      </root>
    </mxGraphModel>
  </diagram>
</mxfile>
